<svg xmlns="http://www.w3.org/2000/svg" viewBox="0 0 82.75 29.1"><g id="Layer_2" data-name="Layer 2"><g id="Layer_2-2" data-name="Layer 2"><path d="M3.15,10a.91.91,0,0,0-.88-.54A.9.9,0,0,0,1.4,10a1.44,1.44,0,0,0-.12.56h2A1.44,1.44,0,0,0,3.15,10M1.28,11.49a1.08,1.08,0,0,0,1.15,1.16,1.44,1.44,0,0,0,1.18-.49l.79.77a2.48,2.48,0,0,1-2,.82C1.18,13.75,0,13.19,0,11.08,0,9.37.92,8.41,2.27,8.41a2.25,2.25,0,0,1,2.28,2.5v.58Z" fill="#1a9ac7"/><rect x="5.38" y="10.22" width="3.09" height="1.21" fill="#1a9ac7"/><path d="M11.73,9.58c-.79,0-.89.64-.89,1.5s.1,1.5.89,1.5.88-.65.88-1.5-.1-1.5-.88-1.5m1.65,3.7a1.81,1.81,0,0,1-1.27.47,1.59,1.59,0,0,1-1.31-.55v.49H9.54V6.56h1.3V8.93a1.56,1.56,0,0,1,1.27-.52,1.81,1.81,0,0,1,1.27.47,3.11,3.11,0,0,1,.53,2.2,3.11,3.11,0,0,1-.53,2.2" fill="#1a9ac7"/><path d="M16.39,13.69a1.42,1.42,0,0,1-1.52-1.49V6.56h1.3v5.56c0,.31.13.47.46.47h.5v1.1Z" fill="#1a9ac7"/><path d="M20.93,13.69v-.48a1.78,1.78,0,0,1-1.3.54,1.69,1.69,0,0,1-1.23-.46,1.93,1.93,0,0,1-.53-1.48V8.47h1.3v3.16a.87.87,0,1,0,1.73,0V8.47h1.31v5.22Z" fill="#1a9ac7"/><path d="M26.33,10a1,1,0,0,0-1.74,0,1.44,1.44,0,0,0-.12.56h2a1.44,1.44,0,0,0-.12-.56m-1.86,1.45a1.08,1.08,0,0,0,1.14,1.17,1.44,1.44,0,0,0,1.18-.49l.79.77a2.48,2.48,0,0,1-2,.82c-1.23,0-2.42-.56-2.42-2.67,0-1.71.93-2.67,2.28-2.67a2.24,2.24,0,0,1,2.27,2.49v.58Z" fill="#1a9ac7"/><path d="M30.88,9.58c-.79,0-.89.64-.89,1.5s.1,1.5.89,1.5.88-.65.88-1.5-.1-1.5-.88-1.5m1.65,3.7a1.81,1.81,0,0,1-1.27.47A1.57,1.57,0,0,1,30,13.23v2.38h-1.3V8.47H30V9a1.62,1.62,0,0,1,1.31-.55,1.81,1.81,0,0,1,1.27.47,3.11,3.11,0,0,1,.53,2.2,3.11,3.11,0,0,1-.53,2.2" fill="#1a9ac7"/><path d="M36.89,9.89a.84.84,0,0,0-.69-.31.87.87,0,0,0-.84,1v3.15h-1.3V8.47h1.27V9a1.77,1.77,0,0,1,1.32-.56,1.57,1.57,0,0,1,1.23.49Z" fill="#1a9ac7"/><path d="M38.38,8.47h1.31v5.22H38.38Zm0-2H39.7V7.58H38.36Z" fill="#1a9ac7"/><path d="M43.93,13.69V10.53a.87.87,0,1,0-1.73,0v3.16H40.89V8.47h1.27V9a1.81,1.81,0,0,1,1.31-.54,1.69,1.69,0,0,1,1.23.46,1.93,1.93,0,0,1,.53,1.48v3.34Z" fill="#1a9ac7"/><path d="M48,13.69a1.41,1.41,0,0,1-1.51-1.49V9.61H46v-1h.55V7.08h1.3V8.62h.92v1h-.92v2.51c0,.3.14.47.45.47h.47v1.1Z" fill="#1a9ac7"/><path d="M47.49,17.71l-.15.67h.47l-.7,3.33a1.59,1.59,0,0,0,0,.39c0,.42.28.59.66.59a1.23,1.23,0,0,0,.67-.19l.12-.55a.82.82,0,0,1-.32.11.14.14,0,0,1-.16-.15,1.76,1.76,0,0,1,0-.19l.85-4Zm-2.14,3.47a1.35,1.35,0,0,1-.26.63.69.69,0,0,1-.53.23c-.32,0-.49-.21-.49-.62,0-.74.54-1.74,1.37-1.74a.45.45,0,0,1,.22.05Zm.88-1.91a1.54,1.54,0,0,0-.77-.2,2.35,2.35,0,0,0-2.35,2.37,1.12,1.12,0,0,0,1.16,1.25,1.31,1.31,0,0,0,1-.41.56.56,0,0,0,.59.38,1.26,1.26,0,0,0,.68-.19l.11-.54a.79.79,0,0,1-.32.1c-.11,0-.16-.05-.16-.15s0-.12,0-.19l.55-2.55Zm-4-.13L42.5,18l-1,.23-.18.87h-.56l-.14.67h.56l-.34,1.59a2.48,2.48,0,0,0,0,.45c0,.55.4.84,1,.84a1.8,1.8,0,0,0,.91-.24l.12-.61a1.63,1.63,0,0,1-.68.19c-.22,0-.36-.1-.36-.32,0-.06,0-.16,0-.24l.36-1.66h.8l.14-.67Zm-3.4,0-.15.67h.47l-.4,1.9a1.59,1.59,0,0,0-.05.39c0,.42.28.59.66.59a1.23,1.23,0,0,0,.67-.19l.12-.55a.87.87,0,0,1-.32.11.14.14,0,0,1-.16-.15,1.76,1.76,0,0,1,0-.19l.55-2.58Zm1.64-1.06a.41.41,0,0,0-.43-.42.67.67,0,0,0-.65.64.4.4,0,0,0,.42.42.68.68,0,0,0,.66-.64m-3.74,4.54a1.47,1.47,0,0,1-.38.72,1,1,0,0,1-.69.25c-.36,0-.61-.15-.61-.43s.25-.44.87-.51a1.64,1.64,0,0,0,.88-.29Zm.32-1.44a1.29,1.29,0,0,1-.27.6.68.68,0,0,1-.53.24c-.31,0-.52-.21-.52-.63,0-.79.52-1.71,1.33-1.71a.67.67,0,0,1,.3.06Zm.83-1.91a1.67,1.67,0,0,0-.84-.2,2.33,2.33,0,0,0-2.27,2.37,1.27,1.27,0,0,0,.32.89c-.55.13-.83.43-.83.85,0,.6.58,1,1.39,1a2.06,2.06,0,0,0,1.57-.62,2.91,2.91,0,0,0,.58-1.36l.64-3ZM33,19.14l-.14.67h.46l-.4,1.9a1.59,1.59,0,0,0,0,.39c0,.42.28.59.66.59a1.29,1.29,0,0,0,.68-.19l.11-.55a.77.77,0,0,1-.31.11c-.11,0-.17-.06-.17-.15s0-.12,0-.19l.55-2.58Zm1.65-1.06a.42.42,0,0,0-.44-.42.67.67,0,0,0-.65.64.4.4,0,0,0,.42.42.69.69,0,0,0,.67-.64m-3.57,3.1a1.47,1.47,0,0,1-.27.63.67.67,0,0,1-.52.23c-.32,0-.52-.22-.52-.63,0-.83.6-1.73,1.33-1.73a.72.72,0,0,1,.29.05Zm.27-3.47-.14.67h.46l-.15.73a1.82,1.82,0,0,0-.37,0,2.35,2.35,0,0,0-2.35,2.37A1.15,1.15,0,0,0,30,22.69a1.33,1.33,0,0,0,1-.41.55.55,0,0,0,.59.38,1.29,1.29,0,0,0,.68-.19l.11-.54a.79.79,0,0,1-.32.1.14.14,0,0,1-.16-.15,1,1,0,0,1,0-.19l.84-4Z" fill="#1a9ac7"/><path d="M68.79,7.77A6,6,0,0,0,63.06,14a5.86,5.86,0,0,0,.1,1.15l10.47-4.41a5.73,5.73,0,0,0-4.84-3M69,20.27a5.5,5.5,0,0,0,5.17-3H77A8.09,8.09,0,0,1,69,22.91a8.68,8.68,0,0,1-8.69-8.86,8.75,8.75,0,0,1,8.53-8.92,8.56,8.56,0,0,1,8.25,7l-13,5.5A5.8,5.8,0,0,0,69,20.27M68.58,0A14.17,14.17,0,0,0,58.41,24l-1,5.06,4.46-2.43A14.17,14.17,0,1,0,68.58,0" fill="#1a9ac7"/></g></g></svg>